<?xml version="1.0" ?><svg enable-background="new 0 0 32 32" version="1.1" viewBox="0 0 32 32" xml:space="preserve" xmlns="http://www.w3.org/2000/svg" xmlns:xlink="http://www.w3.org/1999/xlink"><g id="Layer_4_copy_3"><g><g><g><polygon fill="#FFFFFF" points="3,24.206 3,0.5 29,0.5 29,24.206 16,31.428     "/><g><path d="M28.5,1v22.912L16,30.856L3.5,23.912V1H16H28.5 M29.5,0H16H2.5v24.5L16,32l13.5-7.5V0L29.5,0z"/></g></g></g><g><polygon fill="#0F8EDB" points="16,2.323 4.82,2.323 4.82,23.161 16,29.372 27.18,23.161 27.18,2.445    "/></g></g><path d="M23.247,19.927v-5.36c0-2.872-1.533-4.208-3.577-4.208c-1.649,0-2.388,0.907-2.8,1.544v-1.324h-3.107   c0.041,0.877,0,9.348,0,9.348h3.107v-5.221c0-0.279,0.02-0.558,0.103-0.757c0.224-0.558,0.735-1.136,1.593-1.136   c1.125,0,1.574,0.857,1.574,2.113v5.001L23.247,19.927L23.247,19.927z M10.49,9.303c1.083,0,1.758-0.718,1.758-1.616   c-0.02-0.917-0.675-1.614-1.738-1.614S8.753,6.77,8.753,7.687c0,0.897,0.675,1.616,1.717,1.616H10.49z M12.043,19.927v-9.348H8.937   v9.348H12.043z" fill="#FFFFFF"/></g></svg>