<svg xmlns="http://www.w3.org/2000/svg" style="display: none;">
  <!-- Símbolo para Twitch -->
  <symbol id="twitch" viewBox="0 0 64 64">
    <path fill="#fff" d="M43.172,43H34c-0.53,0-1.039,0.211-1.414,0.586L27,49.172V45c0-1.104-0.896-2-2-2h-8V15h33v21.172L43.172,43z"/>
    <path fill="#ffa1ac" d="M26,45c0-0.551-0.448-1-1-1h-9V14h35v22.586L43.586,44H34c-0.263,0-0.521,0.107-0.707,0.293L26,51.586V45z"/>
    <ellipse cx="32" cy="61" opacity=".3" rx="19" ry="3"/>
    <path fill="#9c34c2" d="M29.5,36c-1.381,0-2.5-1.119-2.5-2.5v-9c0-1.381,1.119-2.5,2.5-2.5s2.5,1.119,2.5,2.5v9C32,34.881,30.881,36,29.5,36z"/>
    <path fill="#9c34c2" d="M40.5,36c-1.381,0-2.5-1.119-2.5-2.5v-9c0-1.381,1.119-2.5,2.5-2.5s2.5,1.119,2.5,2.5v9C43,34.881,41.881,36,40.5,36z"/>
    <path fill="#9c34c2" d="M54.849,37.761c0.036-0.087,0.058-0.177,0.081-0.268c0.009-0.036,0.024-0.069,0.031-0.106C54.987,37.26,55,37.13,55,37V12c0-1.104-0.896-2-2-2H15c-0.008,0-0.015,0.002-0.023,0.002c-0.06,0.001-0.119,0.012-0.179,0.018c-0.073,0.008-0.148,0.011-0.219,0.026c-0.011,0.002-0.021,0.007-0.031,0.01c-0.244,0.057-0.471,0.154-0.672,0.291c-0.004,0.003-0.007,0.007-0.011,0.009c-0.101,0.07-0.196,0.147-0.282,0.233c-0.038,0.038-0.069,0.084-0.104,0.126c-0.048,0.057-0.1,0.112-0.142,0.174c-0.025,0.037-0.042,0.08-0.065,0.12c-0.044,0.076-0.088,0.151-0.122,0.233c-0.002,0.005-0.006,0.01-0.008,0.015l-4,10C9.048,21.493,9,21.745,9,22v28c0,1.104,0.896,2,2,2h11v4c0,1.104,0.896,2,2,2h3c0.53,0,1.039-0.211,1.414-0.586L33.828,52H40c0.53,0,1.039-0.211,1.414-0.586l4-4l9-9c0.095-0.095,0.179-0.198,0.252-0.308c0.048-0.072,0.082-0.149,0.12-0.225C54.806,37.841,54.832,37.803,54.849,37.761z M42.768,43H34c-0.53,0-1.039,0.211-1.414,0.586L27,49.172V45c0-1.104-0.896-2-2-2h-8V15h33v20.722L42.768,43z"/>
    <path fill="#fff" d="M28,10H15c-0.008,0-0.015,0.002-0.023,0.002c-0.06,0.001-0.119,0.012-0.179,0.018 c-0.073,0.008-0.148,0.011-0.219,0.026c-0.011,0.002-0.021,0.007-0.031,0.01c-0.244,0.057-0.471,0.154-0.672,0.291 c-0.004,0.003-0.007,0.007-0.011,0.009c-0.101,0.07-0.196,0.147-0.282,0.233c-0.038,0.038-0.069,0.084-0.104,0.126 c-0.048,0.057-0.1,0.112-0.142,0.174c-0.025,0.037-0.042,0.08-0.065,0.12c-0.044,0.076-0.088,0.151-0.122,0.233 c-0.002,0.005-0.006,0.01-0.008,0.015l-3.998,9.995C9.049,21.49,9,21.744,9,22v16c2.762,0,5-2.239,5-5V22.574l2.778-6.945 C16.93,15.249,17.297,15,17.706,15H23C25.762,15,28,12.761,28,10z" opacity=".3"/>
    <path d="M50,29.062v6.281c0,0.265-0.105,0.52-0.293,0.707l-7.828,7.829c-1.953,1.953-1.953,5.118,0,7.071 l3.535-3.535l9-9c0.095-0.095,0.179-0.198,0.252-0.308c0.048-0.072,0.082-0.149,0.12-0.225c0.02-0.04,0.046-0.078,0.063-0.12 c0.036-0.087,0.058-0.177,0.081-0.268c0.009-0.036,0.024-0.069,0.031-0.106C54.987,37.26,55,37.13,55,37V24.062 C52.238,24.062,50,26.301,50,29.062z" opacity=".15"/>
    <line x1="17.5" x2="21.5" y1="13.5" y2="13.5" fill="none" stroke="#fff" stroke-linecap="round" stroke-linejoin="round" stroke-miterlimit="10" stroke-width="3"/>
  </symbol>

  <!-- Símbolo para Threads -->
  <symbol id="threads" viewBox="0 0 50 50">
    <path d="M 9 4 C 6.2504839 4 4 6.2504839 4 9 L 4 41 C 4 43.749516 6.2504839 46 9 46 L 41 46 C 43.749516 46 46 43.749516 46 41 L 46 9 C 46 6.2504839 43.749516 4 41 4 L 9 4 z M 9 6 L 41 6 C 42.668484 6 44 7.3315161 44 9 L 44 41 C 44 42.668484 42.668484 44 41 44 L 9 44 C 7.3315161 44 6 42.668484 6 41 L 6 9 C 6 7.3315161 7.3315161 6 9 6 z M 25.197266 11 C 21.175771 11.03063 17.921696 12.404232 15.810547 15.089844 C 13.89599 17.523831 12.96586 20.882337 12.931641 24.982422 L 12.931641 24.990234 L 12.931641 24.998047 C 12.965851 29.118158 13.895484 32.477165 15.810547 34.912109 C 17.922655 37.596431 21.176137 38.96935 25.179688 39 L 25.1875 39 L 25.195312 39 C 28.748351 38.97377 31.450694 38.006097 33.544922 35.914062 C 36.201473 33.259766 36.203796 29.877541 35.291016 27.744141 L 35.291016 27.742188 C 34.743292 26.471756 33.762233 25.400445 32.492188 24.634766 C 32.227773 24.475031 31.514635 24.28877 31.167969 24.123047 C 31.169969 23.697531 31.219702 23.580672 31.164062 23.148438 C 31.005927 21.919581 30.635949 20.561968 29.701172 19.458984 C 28.766412 18.356072 27.253584 17.610589 25.234375 17.597656 L 25.230469 17.597656 L 25.226562 17.597656 C 23.124423 17.597656 21.280446 18.519137 20.183594 20.189453 L 21.855469 21.287109 C 22.598268 20.155956 23.66195 19.598179 25.224609 19.597656 C 26.793251 19.608656 27.607889 20.081872 28.175781 20.751953 C 28.744254 21.422719 29.051777 22.395152 29.181641 23.404297 C 29.182641 23.412297 29.180658 23.419614 29.181641 23.427734 C 28.281937 23.244519 27.343132 23.136719 26.365234 23.136719 C 26.039627 23.136719 25.710212 23.145816 25.373047 23.166016 C 23.462073 23.276328 22.044458 23.897125 21.136719 24.824219 C 20.228639 25.75166 19.875265 26.939342 19.931641 28.001953 C 19.998411 29.252438 20.624371 30.363243 21.572266 31.099609 C 22.520161 31.835976 23.769781 32.224609 25.148438 32.224609 C 25.276619 32.224609 25.403649 32.221944 25.53125 32.214844 C 27.156277 32.124974 28.577075 31.503299 29.546875 30.371094 C 30.440887 29.327368 30.905076 27.893035 31.095703 26.208984 C 31.176903 26.261484 31.346489 26.280874 31.457031 26.347656 L 31.458984 26.347656 C 32.414939 26.923977 33.086849 27.683635 33.453125 28.533203 C 34.069782 29.976014 34.189589 32.441063 32.130859 34.498047 C 30.406781 36.22032 28.402916 36.972864 25.1875 36.998047 C 21.619905 36.968847 19.093236 35.849593 17.382812 33.675781 C 15.829099 31.700282 14.966664 28.813636 14.933594 24.990234 C 14.966654 21.187515 15.829301 18.300519 17.382812 16.326172 L 17.382812 16.324219 C 19.092201 14.149691 21.617465 13.031165 25.205078 13.001953 C 28.790756 13.031153 31.365844 14.154443 33.140625 16.337891 C 33.994022 17.386988 34.660906 18.725217 35.105469 20.335938 L 37.033203 19.804688 C 36.527706 17.973483 35.749962 16.375074 34.693359 15.076172 C 32.517649 12.399475 29.232442 11.030635 25.212891 11 L 25.205078 11 L 25.197266 11 z M 26.365234 25.136719 C 27.309206 25.136719 28.197048 25.224199 28.992188 25.404297 L 28.994141 25.404297 C 29.133358 25.435727 29.061771 25.446809 29.179688 25.474609 C 29.178687 25.491019 29.179687 25.646484 29.179688 25.646484 L 29.179688 25.648438 C 29.051064 27.255066 28.628044 28.369019 28.027344 29.070312 C 27.426644 29.771608 26.635848 30.149663 25.421875 30.216797 C 25.331475 30.221797 25.240255 30.224609 25.148438 30.224609 C 24.147092 30.224609 23.338683 29.940868 22.798828 29.521484 C 22.258973 29.102101 21.965917 28.575 21.929688 27.896484 C 21.900067 27.338096 22.067486 26.732215 22.566406 26.222656 C 23.065327 25.713098 23.942296 25.253091 25.490234 25.164062 L 25.492188 25.164062 C 25.789022 25.146272 26.078842 25.136719 26.365234 25.136719 z"/>
  </symbol>

  <!-- GitHub -->
  <symbol id="github" viewBox="0 0 98 96">
    <path fill="#181717" fill-rule="evenodd" d="M48.854 0C21.839 0 0 22 0 49.217c0 21.756 13.993 40.172 33.405 46.69 2.427.49 3.316-1.059 3.316-2.362 0-1.141-.08-5.052-.08-9.127-13.59 2.934-16.42-5.867-16.42-5.867-2.184-5.704-5.42-7.17-5.42-7.17-4.448-3.015.324-3.015.324-3.015 4.934.326 7.523 5.052 7.523 5.052 4.367 7.496 11.404 5.378 14.235 4.074.404-3.178 1.699-5.378 3.074-6.6-10.839-1.141-22.243-5.378-22.243-24.283 0-5.378 1.94-9.778 5.014-13.2-.485-1.222-2.184-6.275.486-13.038 0 0 4.125-1.304 13.426 5.052a46.97 46.97 0 0 1 12.214-1.63c4.125 0 8.33.571 12.213 1.63 9.302-6.356 13.427-5.052 13.427-5.052 2.67 6.763.97 11.816.485 13.038 3.155 3.422 5.015 7.822 5.015 13.2 0 18.905-11.404 23.06-22.324 24.283 1.78 1.548 3.316 4.481 3.316 9.126 0 6.6-.08 11.897-.08 13.526 0 1.304.89 2.853 3.316 2.364 19.412-6.52 33.405-24.935 33.405-46.691C97.707 22 75.788 0 48.854 0z"/>
  </symbol>

  <!-- GitLab -->
  <symbol id="gitlab" viewBox="0 0 24 24">
    <path fill="#E24329" d="M22.65 14.39L12 22.13 1.35 14.39a.84.84 0 0 1-.3-.94l1.22-3.78 2.44-7.51A.42.42 0 0 1 4.82 2a.43.43 0 0 1 .58 0 .42.42 0 0 1 .11.18l2.44 7.49h8.1l2.44-7.51A.42.42 0 0 1 18.6 2a.43.43 0 0 1 .58 0 .42.42 0 0 1 .11.18l2.44 7.51L23 13.45a.84.84 0 0 1-.35.94z"/>
    <path fill="#FC6D26" d="M12 22.13l-4.42-12.46h8.84L12 22.13z"/>
    <path fill="#FCA326" d="M12 22.13L7.58 9.67H1.35L12 22.13z"/>
    <path fill="#FC6D26" d="M1.35 9.67l-1.22 3.78a.84.84 0 0 0 .3.94L12 22.13 1.35 9.67z"/>
    <path fill="#FCA326" d="M1.35 9.67h6.23L4.82 2.15a.42.42 0 0 0-.11-.18.43.43 0 0 0-.58 0 .42.42 0 0 0-.11.18L1.35 9.67z"/>
    <path fill="#FC6D26" d="M22.65 9.67l1.22 3.78a.84.84 0 0 1-.3.94L12 22.13 22.65 9.67z"/>
    <path fill="#FCA326" d="M22.65 9.67h-6.23l2.76-7.52a.42.42 0 0 1 .11-.18.43.43 0 0 1 .58 0 .42.42 0 0 1 .11.18l2.67 7.52z"/>
  </symbol>

  <!-- Docker -->
  <symbol id="docker" viewBox="0 0 640 512">
    <path fill="#2396ED" d="M349.9 236.3h-66.1v-59.4h66.1v59.4zm0-204.3h-66.1v60.7h66.1V32zm78.2 144.8H362v59.4h66.1v-59.4zm-156.3-72.1h-66.1v60.1h66.1v-60.1zm78.1 0h-66.1v60.1h66.1v-60.1zm276.8 100c-14.4-9.7-47.6-13.2-73.1-8.4-3.3-24-16.7-44.9-41.1-63.7l-14-9.3-9.3 14c-18.4 27.8-23.4 73.6-9.7 103.8-8.7 4.7-25.8 11.1-48.4 10.7H2.4c-8.7 50.8 5.8 116.8 44 162.1 37.1 43.9 92.7 66.2 165.4 66.2 157.4 0 273.9-72.5 328.4-204.2 21.4.4 67.6.1 91.3-45.2 1.5-2.5 6.6-13.2 8.5-17.1l-13.3-8.9zm-511.1-27.9h-66v59.4h66.1v-59.4zm78.1 0h-66.1v59.4h66.1v-59.4zm78.1 0h-66.1v59.4h66.1v-59.4zm-78.1-72.1h-66.1v60.1h66.1v-60.1z"/>
  </symbol>

  <!-- Node.js -->
  <symbol id="nodejs" viewBox="0 0 24 24">
    <path fill="#339933" d="M11.998 24c-6.617 0-11.985-5.372-11.985-12s5.368-12 11.985-12c6.618 0 12.015 5.372 12.015 12s-5.397 12-12.015 12zm-3.276-18.26c-1.644 0-2.967 1.323-2.967 2.965v8.59c0 1.642 1.323 2.965 2.967 2.965h6.552c1.643 0 2.966-1.323 2.966-2.965v-8.59c0-1.642-1.323-2.965-2.966-2.965h-6.552zm1.645 2.529h3.262c.488 0 .885.397.885.885v.008c0 .488-.397.885-.885.885h-3.262c-.488 0-.885-.397-.885-.885v-.008c0-.488.397-.885.885-.885zm0 3.262h3.262c.488 0 .885.396.885.884v.008c0 .488-.397.885-.885.885h-3.262c-.488 0-.885-.397-.885-.885v-.008c0-.488.397-.884.885-.884zm-.354 2.207c-.587 0-1.062.476-1.062 1.063s.475 1.063 1.062 1.063 1.063-.476 1.063-1.063-.476-1.063-1.063-1.063z"/>
  </symbol>

  <!-- Python -->
  <symbol id="python" viewBox="0 0 24 24">
    <path fill="#3776AB" d="M11.985 1.995c-5.033.06-8.673 1.38-8.673 3.84v3.36c0 2.46 3.64 3.78 8.673 3.84h.654c5.033-.06 8.673-1.38 8.673-3.84V5.835c0-2.46-3.64-3.78-8.673-3.84h-.654zm-6.327 5.7v1.68h13.305v-1.68H5.658zm13.305 3.36H5.658v5.04c0 1.68 2.617 3.06 6.327 3.06h.654c3.71 0 6.327-1.38 6.327-3.06v-5.04zm-6.327 1.68c-.555 0-1.005.45-1.005 1.005v1.005c0 .555.45 1.005 1.005 1.005s1.005-.45 1.005-1.005v-1.005c0-.555-.45-1.005-1.005-1.005z"/>
    <path fill="#FFD43B" d="M12.639 1.995c5.033.06 8.673 1.38 8.673 3.84v3.36c0 2.46-3.64 3.78-8.673 3.84h-.654c-5.033-.06-8.673-1.38-8.673-3.84V5.835c0-2.46 3.64-3.78 8.673-3.84h.654zm-6.327 5.7v1.68h13.305v-1.68H6.312zm13.305 3.36H6.312v5.04c0 1.68 2.617 3.06 6.327 3.06h.654c3.71 0 6.327-1.38 6.327-3.06v-5.04zm-6.327 1.68c-.555 0-1.005.45-1.005 1.005v1.005c0 .555.45 1.005 1.005 1.005s1.005-.45 1.005-1.005v-1.005c0-.555-.45-1.005-1.005-1.005z"/>
  </symbol>

  <!-- React -->
  <symbol id="react" viewBox="-11.5 -10.232 23 20.463">
    <circle r="2.05" fill="#61dafb"/>
    <g fill="none" stroke="#61dafb">
      <ellipse rx="11" ry="4.2"/>
      <ellipse rx="11" ry="4.2" transform="rotate(60)"/>
      <ellipse rx="11" ry="4.2" transform="rotate(120)"/>
    </g>
  </symbol>

  <!-- Vue.js -->
  <symbol id="vuejs" viewBox="0 0 128 128">
    <path d="M0 8.934l49.854.158 14.167 24.47 14.432-24.47L128 8.935l-63.834 110.14zm126.98.637l-24.36.02-38.476 66.053L25.691 9.592.942 9.592l63.211 107.89z" fill="#35495e"/>
    <path d="M25.997 9.393l23.002.006 37.353 64.476L123.063 9.4l3.94-.006L64.06 119.056z" fill="#41b883"/>
  </symbol>

  <!-- Angular -->
  <symbol id="angular" viewBox="0 0 24 24">
    <path fill="#DD0031" d="M12 2.5l8.84 3.15-1.34 11.7L12 21.5l-7.5-4.15-1.34-11.7L12 2.5zm0 2.1L5.42 7.25l1.13 9.9L12 19.35l5.45-3.2 1.13-9.9L12 4.6z"/>
    <path fill="#C3002F" d="M12 2.5v19l-7.5-4.15-1.34-11.7L12 2.5zm0 2.1v14.65l-5.45-3.2-1.13-9.9L12 4.6z"/>
    <path fill="#FFF" d="M12 7.2l-5.9 3.5 1.6 3.5H12v-7zm0 7h4.3l1.6-3.5-5.9-3.5v7z"/>
  </symbol>

  <!-- TypeScript -->
  <symbol id="typescript" viewBox="0 0 24 24">
    <path fill="#007ACC" d="M23.429 0H.57A.571.571 0 0 0 0 .571V23.43a.571.571 0 0 0 .571.571H23.43a.571.571 0 0 0 .571-.571V.57a.571.571 0 0 0-.572-.571zM12 19.714a2.857 2.857 0 0 1-2.857-2.857h1.714c0 .629.514 1.143 1.143 1.143s1.143-.514 1.143-1.143c0-1.143-1.714-1.029-1.714-2.857 0-.629.514-1.143 1.143-1.143.629 0 1.143.514 1.143 1.143h1.714A2.857 2.857 0 0 0 12 12v1.714c1.143 0 1.714 1.029 1.714 1.714S13.143 17.857 12 19.714zm5.143-6.857v1.714h-2.571v-1.714h2.571zm-10.286 0v1.714H4.286v-1.714h2.571z"/>
  </symbol>

  <!-- HTML5 -->
  <symbol id="html5" viewBox="0 0 24 24">
    <path fill="#E34F26" d="M1.5 0h21l-1.91 21.563L11.977 24l-8.564-2.438L1.5 0zm7.031 9.75l-.232-2.718 10.059.003.23-2.622L5.412 4.41l.698 8.01h9.126l-.326 3.426-2.91.804-2.955-.81-.188-2.11H6.248l.33 4.171L12 19.351l5.379-1.443.744-8.157H8.531z"/>
  </symbol>

  <!-- CSS3 -->
  <symbol id="css3" viewBox="0 0 24 24">
    <path fill="#1572B6" d="M1.5 0h21l-1.91 21.563L11.977 24l-8.564-2.438L1.5 0zm17.09 4.413L5.41 4.41l.213 2.622 10.125.002-.255 2.716h-6.64l.24 2.573h6.182l-.366 3.523-2.91.804-2.956-.81-.188-2.11h-2.61l.29 3.855L12 19.288l5.373-1.53L18.59 4.414z"/>
  </symbol>

  <!-- JavaScript -->
  <symbol id="javascript" viewBox="0 0 24 24">
    <path fill="#F7DF1E" d="M0 0h24v24H0V0zm22.034 18.276c-.175-1.095-.888-2.015-3.003-2.873-.736-.345-1.554-.585-1.797-1.14-.091-.33-.105-.51-.046-.705.15-.646.915-.84 1.515-.66.39.12.75.42.976.9 1.034-.676 1.034-.676 1.755-1.125-.27-.42-.404-.601-.586-.78-.63-.705-1.469-1.065-2.834-1.034l-.705.089c-.676.165-1.32.525-1.71 1.005-1.14 1.291-.811 3.541.569 4.471 1.365 1.02 3.361 1.244 3.616 2.205.24 1.17-.87 1.545-1.966 1.41-.811-.18-1.26-.586-1.755-1.336l-1.83 1.051c.21.48.45.689.81 1.109 1.74 1.756 6.09 1.666 6.871-1.004.029-.09.24-.705.074-1.65l.046.067zm-8.983-7.245h-2.248c0 1.938-.009 3.864-.009 5.805 0 1.232.063 2.363-.138 2.711-.33.689-1.18.601-1.566.48-.396-.196-.597-.466-.83-.855-.063-.105-.11-.196-.127-.196l-1.825 1.125c.305.63.75 1.172 1.324 1.517.855.51 2.004.675 3.207.405.783-.226 1.458-.691 1.811-1.411.51-.93.402-2.07.397-3.346.012-2.054 0-4.109 0-6.179l.004-.056z"/>
  </symbol>

  <!-- PHP -->
  <symbol id="php" viewBox="0 0 24 24">
    <path fill="#777BB4" d="M12 0C5.373 0 0 5.373 0 12s5.373 12 12 12 12-5.373 12-12S18.627 0 12 0zm0 22c-5.523 0-10-4.477-10-10S6.477 2 12 2s10 4.477 10 10-4.477 10-10 10zm-3.5-8.5v-7h2v7h-2zm4 0v-7h2v7h-2z"/>
  </symbol>

  <!-- Ruby -->
  <symbol id="ruby" viewBox="0 0 24 24">
    <path fill="#CC342D" d="M12 0C5.373 0 0 5.373 0 12s5.373 12 12 12 12-5.373 12-12S18.627 0 12 0zm6.5 8.5c0 1.71-.96 3.26-2.5 4-.52.26-1.08.5-1.66.5-.58 0-1.14-.24-1.66-.5-1.54-.74-2.5-2.29-2.5-4 0-1.71.96-3.26 2.5-4 .52-.26 1.08-.5 1.66-.5.58 0 1.14.24 1.66.5 1.54.74 2.5 2.29 2.5 4z"/>
  </symbol>

  <!-- Go -->
  <symbol id="golang" viewBox="0 0 24 24">
    <path fill="#00ADD8" d="M11.997 24c-6.617 0-11.985-5.372-11.985-12s5.368-12 11.985-12c6.618 0 12.015 5.372 12.015 12s-5.397 12-12.015 12zm-1.747-19.5h3.5v3.5h-3.5v-3.5zm0 7h3.5v3.5h-3.5v-3.5zm-3.5-3.5h3.5v3.5h-3.5v-3.5z"/>
  </symbol>

  <!-- Rust -->
  <symbol id="rust" viewBox="0 0 24 24">
    <path fill="#000000" d="M12 0C5.373 0 0 5.373 0 12s5.373 12 12 12 12-5.373 12-12S18.627 0 12 0zm0 22c-5.523 0-10-4.477-10-10S6.477 2 12 2s10 4.477 10 10-4.477 10-10 10zm-3.5-8.5v-7h2v7h-2zm4 0v-7h2v7h-2z"/>
  </symbol>

  <!-- Kotlin -->
  <symbol id="kotlin" viewBox="0 0 24 24">
    <path fill="#7F52FF" d="M12 0C5.373 0 0 5.373 0 12s5.373 12 12 12 12-5.373 12-12S18.627 0 12 0zm0 22c-5.523 0-10-4.477-10-10S6.477 2 12 2s10 4.477 10 10-4.477 10-10 10zm-3.5-8.5v-7h2v7h-2zm4 0v-7h2v7h-2z"/>
  </symbol>

  <!-- Swift -->
  <symbol id="swift" viewBox="0 0 24 24">
    <path fill="#F05138" d="M12 0C5.373 0 0 5.373 0 12s5.373 12 12 12 12-5.373 12-12S18.627 0 12 0zm0 22c-5.523 0-10-4.477-10-10S6.477 2 12 2s10 4.477 10 10-4.477 10-10 10zm-3.5-8.5v-7h2v7h-2zm4 0v-7h2v7h-2z"/>
  </symbol>

  <!-- Scala -->
  <symbol id="scala" viewBox="0 0 24 24">
    <path fill="#DC322F" d="M12 0C5.373 0 0 5.373 0 12s5.373 12 12 12 12-5.373 12-12S18.627 0 12 0zm0 22c-5.523 0-10-4.477-10-10S6.477 2 12 2s10 4.477 10 10-4.477 10-10 10zm-3.5-8.5v-7h2v7h-2zm4 0v-7h2v7h-2z"/>
  </symbol>

  <!-- Elixir -->
  <symbol id="elixir" viewBox="0 0 24 24">
    <path fill="#4B275F" d="M12 0C5.373 0 0 5.373 0 12s5.373 12 12 12 12-5.373 12-12S18.627 0 12 0zm0 22c-5.523 0-10-4.477-10-10S6.477 2 12 2s10 4.477 10 10-4.477 10-10 10zm-3.5-8.5v-7h2v7h-2zm4 0v-7h2v7h-2z"/>
  </symbol>

  <!-- Haskell -->
  <symbol id="haskell" viewBox="0 0 24 24">
    <path fill="#5D4F85" d="M12 0C5.373 0 0 5.373 0 12s5.373 12 12 12 12-5.373 12-12S18.627 0 12 0zm0 22c-5.523 0-10-4.477-10-10S6.477 2 12 2s10 4.477 10 10-4.477 10-10 10zm-3.5-8.5v-7h2v7h-2zm4 0v-7h2v7h-2z"/>
  </symbol>

  <!-- Perl -->
  <symbol id="perl" viewBox="0 0 24 24">
    <path fill="#39457E" d="M12 0C5.373 0 0 5.373 0 12s5.373 12 12 12 12-5.373 12-12S18.627 0 12 0zm0 22c-5.523 0-10-4.477-10-10S6.477 2 12 2s10 4.477 10 10-4.477 10-10 10zm-3.5-8.5v-7h2v7h-2zm4 0v-7h2v7h-2z"/>
  </symbol>

  <!-- Lua -->
  <symbol id="lua" viewBox="0 0 24 24">
    <path fill="#00007C" d="M12 0C5.373 0 0 5.373 0 12s5.373 12 12 12 12-5.373 12-12S18.627 0 12 0zm0 22c-5.523 0-10-4.477-10-10S6.477 2 12 2s10 4.477 10 10-4.477 10-10 10zm-3.5-8.5v-7h2v7h-2zm4 0v-7h2v7h-2z"/>
  </symbol>

  <!-- Clojure -->
  <symbol id="clojure" viewBox="0 0 24 24">
    <path fill="#5881D8" d="M12 0C5.373 0 0 5.373 0 12s5.373 12 12 12 12-5.373 12-12S18.627 0 12 0zm0 22c-5.523 0-10-4.477-10-10S6.477 2 12 2s10 4.477 10 10-4.477 10-10 10zm-3.5-8.5v-7h2v7h-2zm4 0v-7h2v7h-2z"/>
  </symbol>

  <!-- Erlang -->
  <symbol id="erlang" viewBox="0 0 24 24">
    <path fill="#A90533" d="M12 0C5.373 0 0 5.373 0 12s5.373 12 12 12 12-5.373 12-12S18.627 0 12 0zm0 22c-5.523 0-10-4.477-10-10S6.477 2 12 2s10 4.477 10 10-4.477 10-10 10zm-3.5-8.5v-7h2v7h-2zm4 0v-7h2v7h-2z"/>
  </symbol>

  <!-- Dart -->
  <symbol id="dart" viewBox="0 0 24 24">
    <path fill="#00B4AB" d="M12 0C5.373 0 0 5.373 0 12s5.373 12 12 12 12-5.373 12-12S18.627 0 12 0zm0 22c-5.523 0-10-4.477-10-10S6.477 2 12 2s10 4.477 10 10-4.477 10-10 10zm-3.5-8.5v-7h2v7h-2zm4 0v-7h2v7h-2z"/>
  </symbol>
</svg>